PathFileType	4	(X/Y/Z)	1_2_rein_59_p0_0-404.trc
DataRate	CameraRate	NumFrames	NumMarkers	Units	OrigDataRate	OrigDataStartFrame	OrigNumFrames
59.0	59.0	7	27	m	59.0	101	405
Frame#	Time	RHip			RKnee			RAnkle			RBigToe			RSmallToe			RHeel			LHip			LKnee			LAnkle			LBigToe			LSmallToe			LHeel			Neck			Head			Nose			RShoulder			RElbow			RWrist			RThumb			RIndex			RPinky			LShoulder			LElbow			LWrist			LThumb			LIndex			LPinky			
		X1	Y1	Z1	X2	Y2	Z2	X3	Y3	Z3	X4	Y4	Z4	X5	Y5	Z5	X6	Y6	Z6	X7	Y7	Z7	X8	Y8	Z8	X9	Y9	Z9	X10	Y10	Z10	X11	Y11	Z11	X12	Y12	Z12	X13	Y13	Z13	X14	Y14	Z14	X15	Y15	Z15	X16	Y16	Z16	X17	Y17	Z17	X18	Y18	Z18	X19	Y19	Z19	X20	Y20	Z20	X21	Y21	Z21	X22	Y22	Z22	X23	Y23	Z23	X24	Y24	Z24	X25	Y25	Z25	X26	Y26	Z26	X27	Y27	Z27	
101	1.7118644067796611	0.3240271503526886	0.2861515022873739	1.094298137131608	0.34485902286895365	0.32439221444731164	1.5406842595179946	0.3745751433252015	0.38110240869846757	1.962447702121669	0.35674940237152153	0.1995831146540065	2.0156678677771986	0.43575518275120234	0.2449406524048986	2.0190314336448165	0.3471861517163847	0.4559582212889031	2.036932789229874	0.14166544048758187	0.19015873398329936	1.0749789591392198	0.15190794573434777	0.2694088998054322	1.559037015031779	0.1966375504576019	0.3968900759702248	1.9582234240078984	0.20434495457470397	0.15461617964407556	1.9933278931298213	0.1344239226810938	0.2100690911889042	1.974922776790456	0.21622349916202352	0.4559355217806658	2.0386049707663716	0.35265970636243865	0.16683289665964943	0.45670207244236394	0.5189433839051821	0.08387169694318629	0.22889069938379958	0.49073032867832467	0.06211071355103173	0.3829778861815417	0.43928401827938046	0.3147669240971656	0.5682530727766593	0.4578682844201087	0.4245283965174252	0.8590776198977561	0.517417079330208	0.4262136223402693	1.1259665997944484	0.556505079714901	0.42673960198618544	1.266243993609435	0.5768514379065113	0.46074786694834147	1.2900040633585088	0.5333980726241598	0.4399622138252076	1.2723824759234783	0.19470014909377176	0.07788802880109985	0.4724403482925026	-0.024044532090364196	-0.06014450449439269	0.6107153512026994	-0.1594061669176039	-0.24866904573715426	0.7696930801456767	-0.09795903896763818	-0.30532006486165464	0.8340220606574489	-0.1551978470481005	-0.3787439805854065	0.8254925815074093	-0.21272956316529326	-0.3864009917696984	0.8193084773554516
102	1.728813559322034	0.32345011846726557	0.2845804981868618	1.0895988206848897	0.3439382885849414	0.32222051836665594	1.53536681004253	0.3733767752709276	0.3792144223302923	1.956701973510202	0.35674126499791375	0.19960211170558403	2.015495680539547	0.43571151396624586	0.2449668458204285	2.0187928508185196	0.34719190338325173	0.45636661638319553	2.0366227059110273	0.14104459558619548	0.18978440333230834	1.0672360621932933	0.14612515247057936	0.2812869575333617	1.5597035478349848	0.19307495455604373	0.38392292990390053	1.9520780671728923	0.19994948631818543	0.16824357578776125	2.001368165347364	0.13729903913779085	0.22253981953201174	1.9810736239930817	0.21197147845218492	0.44897982328061437	2.039774436611221	0.3527298149240346	0.16671892980671835	0.4567947609009596	0.5195274242800453	0.0843798913647183	0.22910432219016857	0.4918559499131122	0.07503069463777554	0.38653376329567457	0.4393150156659456	0.3148752842645925	0.5683304516343447	0.44945306317296824	0.4245557718412478	0.8559850197602339	0.5064847313840476	0.42270802687904646	1.1174944080828548	0.554189105821222	0.4270272512417589	1.2588894802719377	0.5671169695892511	0.4382944487355393	1.2839304772533908	0.5249009557151179	0.4364994485999669	1.271164822266048	0.19485090902915483	0.07752645809985075	0.4723745756977471	-0.023427346550082037	-0.0603218647851348	0.6107368601629405	-0.1510997791003991	-0.25487259340717205	0.7681774129444314	-0.09401494939877873	-0.30487930017931414	0.8369884961826108	-0.14240210798983907	-0.39357443088590355	0.8246937375685449	-0.21195450105820354	-0.3868787646587282	0.8194573810543209
103	1.7457627118644068	0.3197288200654432	0.2733703515735597	1.087970549678556	0.3406103677368788	0.3211224755603414	1.5446046956487343	0.3746084113847476	0.3809975132759043	1.9622788481664182	0.35570845599402123	0.19748357528087382	2.010394774800856	0.4393872100506362	0.22966374202145412	2.0099411260229627	0.34708059892053134	0.4557890509827673	2.037004850003475	0.1394498858219944	0.2146807224088584	1.0726016404534342	0.14611423567878912	0.28164122469935016	1.56000932185494	0.1931719642440631	0.3838295156798022	1.951809576103118	0.19723280569965845	0.15706027326798735	1.991885139821746	0.13467504537889674	0.2113265726525759	1.9717161456826429	0.21516275679883007	0.45380299903588417	2.033283597614717	0.3570449467577661	0.1667842134406744	0.46015454821682467	0.5195808852617008	0.08515760975919302	0.2291720464160607	0.49142290111623255	0.06316778338243882	0.3893416653328579	0.43955478566356043	0.31408545816946437	0.5725746226137162	0.4463094717123961	0.4428537862858424	0.8634547245468772	0.5042566506023607	0.4386385305834829	1.130177325597482	0.5465494574567323	0.4301475106269504	1.267168378722712	0.5553606246008316	0.440847201582887	1.2888222710252106	0.5051589415371058	0.48153506232628646	1.2918807421894836	0.19523856160129838	0.07754733893102696	0.47240226971880983	-0.018130952215133937	-0.07138600199829465	0.6158336198493847	-0.12916470744294486	-0.2770332166857371	0.7694919527515983	-0.08238123293707063	-0.3140958678516994	0.8377454281437847	-0.13398023558611521	-0.4007992972769296	0.826054483304022	-0.20395692781328054	-0.3914556830576965	0.8218556031050783
104	1.7627118644067796	0.32370952563399624	0.28275261012736336	1.09424861602154	0.3375685739633087	0.3348538842139933	1.5628938659966605	0.3745577128008866	0.380778815834829	1.9623522996710596	0.3555264844595947	0.19740962397608514	2.0102860174653325	0.4392255663985242	0.22964939861025907	2.010060201862595	0.34695300427895914	0.45521398332929675	2.037869138041124	0.1397276192940273	0.21345601471427056	1.0759791739585507	0.14600224536473727	0.28021927162084265	1.5628416181795655	0.18946724129303885	0.3827217362535219	1.9557830064947859	0.19216566904417642	0.15379890986259578	1.994437905754155	0.13004420227220886	0.2214883394970308	1.9864540803304815	0.21153563764126332	0.4531187717019682	2.031154444550627	0.3571891672180908	0.1671634671035876	0.4601589366366869	0.5237761491419803	0.08670406928920008	0.2288650399075818	0.4954003107876311	0.07230845801298141	0.38921927582050164	0.4394777943147801	0.3142923495971363	0.5728747842756753	0.44271083342378825	0.45279009587045005	0.8696875535513732	0.4950443312938207	0.4231517272965983	1.1314695674091255	0.5450275580516962	0.4282481544445498	1.2628507864307121	0.5537746372352566	0.438002701385354	1.2839486003686549	0.4964897298133773	0.48698484594760044	1.2942747965128303	0.1994083616180211	0.06565584392001446	0.47486079290663064	-0.01977391671469908	-0.07943361928101306	0.6189944552292862	-0.11125062006160509	-0.2826916699467634	0.7635996364896476	-0.06528595553299797	-0.33656171333583307	0.8293016514102989	-0.12695720258261023	-0.4007335536844199	0.8291173667416377	-0.1983680343020609	-0.39894996910806013	0.8255882951112248
105	1.7796610169491525	0.3195336734730767	0.29673341668024084	1.0979245229093804	0.3375486947641401	0.33640105739633996	1.5594816001194578	0.3745489063901485	0.380639871367287	1.9624039936232356	0.3518999617954675	0.1965149444906449	2.0181247267574274	0.434677878028669	0.22741296290199467	2.008706952692669	0.3482616371024251	0.45727398077850523	2.044219258533743	0.14077165963633845	0.20376378156137573	1.0738380807252177	0.14567848566703837	0.28196424044907814	1.5591659116953522	0.1894543819297012	0.38236981335269976	1.9555868252141437	0.1921461322581535	0.15381068737097287	1.9942144903116696	0.13107248999456175	0.22448280039121388	1.9879132886654023	0.2122226783073321	0.4505166517327167	2.0350459721639718	0.36053877885530994	0.17766487364004646	0.460040663806797	0.5244390964299348	0.08458451255510116	0.23179840106062713	0.4965838350220165	0.08664659298253062	0.38979431060009184	0.43884635599654803	0.3162459074289783	0.5695427761401413	0.43397565602239097	0.4688529626756111	0.868403927720935	0.4911571439761734	0.4379682036004212	1.1393119912565688	0.545550163796298	0.4298573472764558	1.2622218870472903	0.5498497703726569	0.42603828783812014	1.2809078512807386	0.4923433437841783	0.5034211676537459	1.3001087230665662	0.19952862547549607	0.06566947679952775	0.4749368748956099	-0.013711501917720524	-0.0685885204247153	0.6194217580144706	-0.10547579018308198	-0.292411907942176	0.7710073122521831	-0.05442236384310112	-0.35644092227708263	0.8328440841212699	-0.11000426750814941	-0.4428522395825168	0.8351054707545812	-0.17041333051173768	-0.4387541484679063	0.8267809867228074
106	1.7966101694915255	0.3194136155609844	0.2969408585773823	1.0983772479853087	0.3408194640071975	0.31930269409828055	1.5478018834375888	0.374671514252968	0.38053352466870843	1.962229753824594	0.3506901700700513	0.1943033364853857	2.012429780008796	0.43070009403816395	0.21586160460330955	2.0027907596770715	0.34846088358783983	0.4576433020835855	2.043801570657674	0.14380287322521443	0.21533876337773505	1.0760321994305049	0.1448165514472809	0.27996998792939454	1.5536445337905214	0.1894242522123006	0.3825164909835411	1.9555896502623467	0.19206685517283395	0.15402253076488917	1.9940325119571538	0.12988874370531023	0.22252215899556754	1.9819637999965631	0.21685931289155475	0.43444037842940564	2.0257433901522885	0.35991359126234557	0.17948679118516492	0.4570332037868053	0.5201509133753011	0.08347346260786204	0.2319156299648344	0.49665917096503653	0.08682956149369665	0.38989446912706327	0.4379692022783679	0.3162500357175075	0.5621551431965459	0.4313869021180792	0.45309143365253884	0.8734252088922987	0.4901760831238028	0.44246336487115606	1.1320799129610053	0.5369984622983601	0.42465789810755034	1.2596244436004416	0.5482461160593168	0.4258397071297943	1.274615615639192	0.49136108732125716	0.4858992253438017	1.2902915624218931	0.20349423001018252	0.06766002903809355	0.4747771678507323	-0.008286794051615745	-0.07887624521338689	0.6241404723361108	-0.10041315061496284	-0.2926699941348892	0.7836493350625079	-0.03405773061128047	-0.35144301202078043	0.8420301577995996	-0.0887032062505801	-0.44363638010736406	0.8407110597178181	-0.1546359292804886	-0.44600946708480116	0.841147210504829
107	1.8135593220338984	0.3157593534040024	0.28583949096987527	1.096033554665187	0.34197875917685366	0.3200529112940903	1.5568612469368317	0.37061885200460565	0.3747722623513585	1.968602014611203	0.3506403370498168	0.19446693622214545	2.01213986667215	0.435129282429974	0.22509120088826637	2.011643672238601	0.3482074632465742	0.4564453193261651	2.0478525417074076	0.14368448142104998	0.21207437886414546	1.0746172616774623	0.14526841247490763	0.277932830857075	1.557340811038854	0.193022633617855	0.39563189750229577	1.9617310771738699	0.1951444061417651	0.16624035863672823	2.0002761995400395	0.13300178272933683	0.23513925340908567	1.9881831760465893	0.21688721861233495	0.43462431722709094	2.025628425174715	0.3599207956816531	0.17955460706465012	0.4570075244037746	0.5201035268281787	0.08316166674960289	0.23196780462985	0.4967529405488443	0.08686520032850419	0.38980989306400354	0.43468715420094445	0.33047973132698655	0.5640531515441961	0.4313650988964379	0.4529161272778394	0.8712811410185461	0.48965998227901786	0.44466079872280173	1.1291356223779143	0.537165554388438	0.4264955308650203	1.2504953029306174	0.5466702436373603	0.4320606866224574	1.2759896829276454	0.4906967511953439	0.49007428700015054	1.2830214245919336	0.20365852988351502	0.06757287505849141	0.47473579791973786	-0.007876156746257438	-0.07830503642354096	0.6278894777895996	-0.09219698308961818	-0.29750285611886473	0.8015146996685216	-0.02332933779905073	-0.35950310095629184	0.8594594819956721	-0.0755120686955536	-0.4348059662033752	0.8513238228755483	-0.14184487484879443	-0.44304547775438835	0.8484673586831893
